<svg xmlns="http://www.w3.org/2000/svg" width="512.000000pt" height="512.000000pt" viewBox="0 0 512.000000 512.000000" preserveAspectRatio="xMidYMid meet"><g transform="translate(0.000000,512.000000) scale(0.100000,-0.100000)" fill="#000000" stroke="none"><path d="M1650 4691 c-71 -22 -150 -91 -150 -131 0 -15 -21 -30 -77 -59 -415 -210 -670 -669 -623 -1123 12 -118 85 -437 104 -456 9 -9 111 -26 286 -48 172 -22 284 -41 304 -51 17 -9 27 -18 21 -19 -5 -2 -86 -15 -180 -29 -93 -13 -186 -29 -205 -35 -51 -14 -122 -61 -159 -106 -55 -66 -662 -1122 -689 -1199 -20 -58 -23 -82 -19 -143 7 -92 47 -180 109 -242 60 -59 977 -590 1063 -615 123 -36 278 5 367 98 41 41 132 195 555 931 79 138 151 275 160 305 28 99 16 158 -87 417 -51 126 -94 234 -97 240 -3 7 26 13 86 16 161 9 245 63 519 331 101 99 147 138 160 134 281 -83 465 -93 628 -36 199 70 254 230 122 356 -27 26 -74 47 -223 98 -105 36 -262 90 -350 121 l-160 55 -41 167 c-62 254 -114 368 -243 532 -98 124 -232 231 -386 307 -147 74 -285 109 -467 119 -98 6 -116 10 -138 29 -45 40 -126 55 -190 36z m111 -101 c50 -27 -6 -82 -89 -88 -70 -5 -91 10 -65 47 29 42 110 64 154 41z m387 -85 c413 -86 711 -383 818 -812 18 -76 34 -145 34 -153 0 -13 -11 -15 -65 -12 -83 5 -210 -13 -303 -44 -40 -13 -74 -24 -76 -24 -2 0 -13 35 -26 78 -60 204 -169 440 -272 589 -72 104 -201 237 -302 312 -86 64 -92 71 -78 86 10 10 187 -2 270 -20z m-608 -72 c0 -4 -27 -62 -59 -128 -182 -370 -214 -741 -104 -1233 13 -63 23 -116 20 -118 -7 -7 -409 44 -417 53 -12 15 -70 287 -81 378 -18 161 17 369 90 530 90 199 266 384 465 491 60 33 86 41 86 27z m327 -52 c255 -179 440 -462 563 -859 18 -57 30 -105 28 -106 -1 -2 -30 -18 -63 -36 -33 -18 -135 -78 -227 -132 -92 -54 -226 -127 -298 -162 -126 -61 -346 -143 -357 -132 -3 3 -16 49 -29 103 -114 471 -87 857 83 1198 66 132 77 145 121 145 20 1 51 7 67 15 17 7 33 14 36 14 3 1 38 -21 76 -48z m1409 -1042 c134 -46 242 -84 240 -86 -2 -2 -32 -11 -67 -19 -90 -22 -232 -93 -325 -162 -43 -32 -166 -141 -272 -243 -106 -101 -219 -201 -250 -222 -69 -45 -138 -67 -206 -66 -98 2 -106 7 -147 87 -46 92 -96 144 -177 184 -75 37 -169 47 -291 29 -75 -11 -83 -11 -122 10 l-43 21 105 40 c143 53 292 128 503 254 374 221 501 267 710 259 93 -3 113 -8 342 -86z m524 -206 c46 -58 8 -123 -98 -164 -50 -21 -75 -23 -207 -24 -148 0 -305 23 -305 45 0 5 34 30 76 56 102 64 220 103 336 112 134 10 174 5 198 -25z m-1772 -409 c92 -46 108 -74 258 -448 151 -378 160 -415 127 -501 -11 -27 -160 -293 -332 -590 -342 -594 -360 -619 -461 -649 -64 -19 -122 -20 -171 -2 -19 7 -244 133 -500 280 -518 298 -544 317 -575 421 -21 73 -14 145 19 211 52 101 638 1109 658 1130 11 12 42 34 70 49 43 23 93 33 377 75 392 58 457 61 530 24z"></path><path d="M1781 2588 c-88 -45 -126 -129 -107 -233 9 -44 56 -100 109 -127 88 -45 214 -3 260 85 48 93 20 208 -63 263 -59 39 -138 44 -199 12z m132 -89 c27 -12 57 -58 57 -88 0 -88 -109 -134 -171 -72 -80 81 10 208 114 160z"></path><path d="M1126 2075 c-166 -59 -188 -291 -36 -382 220 -133 444 162 256 335 -65 60 -140 76 -220 47z m146 -112 c84 -74 36 -203 -75 -203 -57 0 -107 52 -107 110 0 52 13 76 53 101 38 24 98 20 129 -8z"></path><path d="M1315 1552 c-378 -220 -390 -228 -393 -259 -5 -46 31 -63 79 -38 76 40 745 428 762 443 35 31 15 83 -32 81 -15 0 -201 -103 -416 -227z"></path><path d="M1431 1355 c-61 -19 -118 -77 -138 -142 -14 -44 -15 -60 -4 -106 24 -110 113 -174 230 -165 69 5 117 33 159 92 24 35 27 49 27 117 0 70 -3 81 -30 121 -56 78 -155 112 -244 83z m114 -99 c40 -17 65 -60 65 -112 0 -28 -8 -44 -34 -70 -29 -29 -41 -34 -81 -34 -121 0 -154 157 -45 212 42 22 51 22 95 4z"></path><path d="M3073 2119 c-59 -18 -132 -103 -413 -488 l-280 -384 0 -191 c0 -105 5 -211 11 -235 30 -130 140 -262 272 -325 391 -188 857 52 857 441 l0 33 99 0 98 0 6 -74 c13 -151 87 -273 219 -362 238 -159 577 -132 774 61 118 116 144 197 144 460 l0 191 -281 384 c-154 212 -302 406 -329 431 -107 102 -241 83 -304 -42 -42 -84 -34 -203 14 -229 17 -9 26 -8 43 3 20 13 22 23 22 97 0 80 1 82 33 111 39 35 58 36 103 6 32 -22 535 -694 526 -703 -2 -3 -60 1 -128 7 -159 15 -525 6 -689 -16 -135 -18 -425 -16 -545 4 -101 17 -507 25 -644 12 -68 -6 -126 -9 -128 -7 -7 7 485 673 514 695 38 31 69 36 98 17 43 -28 58 -71 51 -142 -6 -59 -5 -64 18 -79 86 -57 121 139 45 250 -46 66 -131 97 -206 74z m282 -923 c137 -21 390 -21 535 1 149 22 614 25 768 4 l104 -13 -4 -177 c-3 -167 -4 -179 -30 -234 -103 -219 -433 -315 -671 -196 -159 80 -237 205 -237 380 0 71 -2 80 -22 91 -31 18 -324 18 -354 1 -19 -11 -22 -24 -26 -111 -6 -121 -39 -201 -112 -273 -226 -223 -656 -169 -788 99 l-33 66 -3 177 -4 177 99 11 c54 6 112 13 128 15 72 10 555 -3 650 -18z"></path></g></svg>