<svg xmlns="http://www.w3.org/2000/svg" width="512.000000pt" height="512.000000pt" viewBox="0 0 512.000000 512.000000" preserveAspectRatio="xMidYMid meet"><g transform="translate(0.000000,512.000000) scale(0.100000,-0.100000)" fill="#000000" stroke="none"><path d="M487 5102 c-16 -17 -17 -159 -17 -1834 0 -1676 1 -1817 17 -1829 12 -11 70 -15 250 -17 l233 -3 0 -43 c0 -42 -1 -42 -82 -97 -103 -68 -158 -142 -182 -248 -23 -99 -23 -550 -1 -636 32 -124 109 -236 211 -306 227 -156 561 -92 712 137 l30 45 30 -43 c35 -51 112 -125 163 -156 141 -86 337 -92 497 -14 77 37 181 141 221 219 52 105 61 162 61 416 l0 227 105 0 105 0 0 -385 c0 -324 2 -391 15 -422 21 -50 42 -72 90 -94 37 -17 79 -19 640 -19 682 0 657 -2 712 81 l28 43 3 398 3 398 147 0 c102 0 152 4 160 12 9 9 12 429 12 1828 0 1747 -1 1818 -18 1833 -16 15 -49 17 -250 17 l-232 0 0 229 c0 216 -1 230 -21 255 l-20 26 -1803 0 c-1734 0 -1804 -1 -1819 -18z m3541 -294 l-3 -193 -1510 -2 -1510 -3 -17 -21 c-17 -20 -18 -108 -18 -1535 l0 -1514 -190 0 -190 0 0 1730 0 1730 1720 0 1720 0 -2 -192z m502 -2043 l0 -1725 -100 0 -100 0 0 340 c0 359 -3 383 -48 434 -32 35 -93 56 -169 56 l-73 0 0 124 c0 135 -9 176 -49 219 -34 38 -66 54 -124 62 -37 6 -48 12 -52 29 -2 11 -11 125 -20 251 -24 350 -25 365 -46 386 -17 17 -36 19 -163 19 -122 0 -147 -3 -165 -17 -19 -17 -22 -38 -41 -298 -11 -154 -23 -299 -26 -322 l-5 -41 -52 -7 c-69 -9 -124 -45 -148 -98 -15 -34 -19 -66 -19 -174 l0 -133 -70 0 c-107 0 -164 -29 -201 -102 -18 -34 -19 -63 -19 -383 l0 -345 -113 0 -112 0 -17 48 c-37 104 -102 163 -302 272 -112 62 -171 110 -215 177 l-31 46 0 538 c0 595 -2 616 -65 798 -60 172 -126 302 -238 471 -56 85 -62 90 -99 90 -30 0 -55 -28 -142 -162 -109 -167 -193 -369 -227 -547 -7 -34 -13 -278 -16 -631 l-5 -574 -30 -43 c-24 -36 -128 -131 -132 -121 0 2 0 697 2 1546 l2 1542 1715 0 1715 0 0 -1725z m-2814 450 c102 -175 178 -367 204 -516 7 -42 10 -240 8 -583 l-3 -520 -125 -73 c-69 -40 -131 -73 -139 -73 -17 0 -255 135 -271 155 -9 11 -11 142 -7 557 5 609 7 629 82 819 49 125 165 329 186 329 4 0 34 -43 65 -95z m1959 -655 l20 -275 -109 -3 c-60 -1 -110 -1 -111 0 -2 2 7 128 18 281 l21 278 70 -3 71 -3 20 -275z m225 -425 c18 -16 20 -31 20 -142 l0 -123 -335 0 -335 0 0 123 c0 122 6 149 37 158 7 2 144 4 303 3 265 -1 292 -3 310 -19z m286 -410 c24 -24 25 -28 22 -147 l-3 -123 -622 -3 -623 -2 0 128 c0 129 6 153 40 165 8 3 273 6 588 6 l573 1 25 -25z m-2586 -820 c0 -248 -5 -448 -10 -473 -26 -109 -116 -224 -212 -270 -111 -54 -243 -52 -355 4 -72 37 -155 127 -185 201 -22 56 -23 67 -23 348 l0 290 28 57 c33 67 73 101 194 165 131 69 195 115 259 187 l57 63 123 -71 124 -71 0 -430z m654 336 c176 -94 220 -141 245 -259 14 -66 14 -490 1 -550 -26 -109 -116 -224 -212 -270 -111 -54 -243 -52 -355 4 -72 37 -155 127 -185 201 -23 57 -23 63 -26 513 l-3 455 122 70 122 70 86 -85 c71 -70 107 -96 205 -149z m1949 -188 c4 -153 7 -331 7 -395 l0 -118 -625 0 -625 0 0 395 0 395 618 0 619 0 6 -277z m7 -763 c0 -117 -2 -132 -20 -150 -20 -20 -33 -20 -605 -20 -572 0 -585 0 -605 20 -18 18 -20 33 -20 150 l0 130 625 0 625 0 0 -130z"></path><path d="M1580 2008 c-132 -67 -132 -248 0 -316 89 -46 196 -9 240 83 56 115 -31 254 -160 255 -20 0 -56 -10 -80 -22z m120 -118 c11 -11 20 -29 20 -40 0 -11 -9 -29 -20 -40 -11 -11 -29 -20 -40 -20 -11 0 -29 9 -40 20 -11 11 -20 29 -20 40 0 11 9 29 20 40 11 11 29 20 40 20 11 0 29 -9 40 -20z"></path><path d="M1120 1157 c-90 -25 -163 -89 -204 -176 -19 -42 -21 -63 -21 -261 0 -211 0 -216 26 -271 50 -106 144 -171 259 -177 125 -7 233 59 288 176 27 56 27 60 27 272 0 199 -2 219 -21 261 -64 137 -219 214 -354 176z m125 -118 c53 -15 110 -73 125 -128 7 -29 10 -105 8 -215 -3 -196 -13 -229 -80 -273 -88 -59 -203 -34 -256 55 -27 47 -27 48 -27 242 0 211 4 227 58 278 25 23 87 51 117 52 8 0 33 -5 55 -11z"></path><path d="M2057 1160 c-95 -24 -179 -97 -213 -186 -17 -43 -19 -76 -19 -264 0 -200 2 -218 22 -262 64 -139 231 -211 376 -162 57 19 140 92 170 148 20 38 22 57 25 269 3 222 3 228 -21 280 -13 29 -39 69 -56 90 -62 70 -191 110 -284 87z m154 -135 c15 -8 41 -31 56 -52 l28 -36 3 -201 c2 -110 1 -210 -3 -223 -8 -33 -65 -94 -102 -109 -77 -33 -173 -3 -220 67 -28 42 -28 44 -31 227 -3 151 -1 192 12 227 40 104 158 150 257 100z"></path></g></svg>