<svg xmlns="http://www.w3.org/2000/svg" width="512.000000pt" height="512.000000pt" viewBox="0 0 512.000000 512.000000" preserveAspectRatio="xMidYMid meet"><g transform="translate(0.000000,512.000000) scale(0.100000,-0.100000)" fill="#000000" stroke="none"><path d="M1815 4729 c-250 -8 -334 -17 -433 -45 -64 -18 -94 -57 -117 -154 -20 -85 -39 -542 -25 -625 5 -32 9 -60 7 -60 -395 -294 -458 -350 -503 -449 -46 -101 -57 -182 -50 -371 4 -93 11 -377 16 -630 7 -413 16 -550 42 -710 1 -5 -28 -41 -65 -78 -48 -49 -79 -93 -109 -155 -41 -82 -43 -90 -43 -176 0 -81 3 -98 31 -157 27 -57 64 -98 275 -311 380 -383 424 -413 589 -413 158 0 161 3 517 357 252 251 303 298 309 282 114 -319 343 -527 694 -629 169 -49 425 -59 623 -25 504 86 871 377 989 785 23 79 23 88 23 566 0 397 -3 489 -14 502 -12 15 -43 17 -256 17 -271 0 -571 -13 -808 -35 -86 -8 -161 -15 -165 -15 -4 0 -7 39 -7 88 0 63 -5 96 -17 121 -10 19 -18 35 -18 37 0 2 27 15 61 30 162 73 225 248 150 423 -17 40 -31 84 -31 98 0 46 30 82 85 99 70 23 116 48 141 76 81 88 72 241 -19 336 -49 52 -97 72 -169 72 -119 0 -212 -67 -243 -175 -29 -99 -105 -124 -198 -65 -92 58 -197 64 -300 17 -117 -53 -193 -165 -171 -252 5 -22 10 -19 69 41 72 74 129 104 200 104 49 0 69 -8 190 -72 49 -27 141 -28 203 -3 58 23 126 102 141 161 7 27 25 59 42 76 25 26 35 30 65 25 48 -8 91 -41 104 -82 10 -30 9 -41 -7 -72 -15 -32 -26 -40 -76 -54 -78 -23 -124 -61 -154 -126 -35 -76 -30 -155 15 -240 35 -67 42 -133 22 -205 -14 -50 -66 -115 -115 -144 l-40 -23 -205 186 c-265 239 -381 339 -393 335 -5 -2 -19 5 -30 15 -19 18 -20 17 -8 -5 6 -12 127 -142 269 -288 141 -146 272 -286 289 -311 54 -74 63 -144 29 -211 -11 -21 -14 -18 -61 53 -51 78 -127 155 -438 445 -235 219 -300 274 -359 308 -27 15 -48 30 -48 33 0 3 19 16 43 30 53 30 163 34 215 7 42 -22 41 -8 -3 30 -33 30 -34 32 -20 59 24 45 28 87 15 149 -24 117 -98 209 -233 290 -77 47 -175 122 -254 195 -52 48 -59 58 -51 78 18 50 -11 540 -42 697 0 1 102 4 228 7 125 3 256 11 292 17 69 11 120 28 120 39 0 16 -48 51 -90 67 -55 21 -333 26 -715 13z m-135 -130 c129 -7 236 -13 238 -14 2 -2 -1 -88 -7 -191 -6 -104 -11 -240 -11 -301 l0 -113 -254 0 -253 0 -7 188 c-4 103 -14 241 -22 307 -7 66 -14 126 -14 134 0 10 11 12 48 8 26 -4 153 -12 282 -18z m289 -811 c27 -60 131 -168 278 -291 112 -93 170 -168 200 -256 l22 -66 -46 -7 c-155 -23 -396 -218 -898 -728 -554 -563 -692 -700 -704 -700 -7 0 -9 9 -6 23 11 50 25 590 26 993 0 581 2 587 169 728 144 122 242 224 275 288 l30 58 170 3 c93 1 235 4 315 5 l145 2 24 -52z m442 -948 c151 -179 443 -472 607 -610 l123 -104 -353 -353 c-194 -195 -477 -473 -628 -618 -151 -145 -318 -311 -370 -370 -101 -113 -193 -195 -250 -222 -19 -9 -61 -19 -93 -21 -52 -4 -67 0 -135 33 -71 35 -96 57 -310 274 -283 288 -322 342 -322 445 1 86 15 103 553 645 281 285 629 642 772 794 196 208 263 273 271 264 6 -7 67 -77 135 -157z m1519 -695 c190 -3 387 -8 438 -11 l92 -6 0 -329 c0 -255 -3 -330 -12 -333 -7 -2 -44 -11 -83 -20 -118 -26 -245 -97 -345 -193 -178 -169 -271 -364 -287 -605 l-6 -97 -46 -8 c-60 -10 -580 -10 -651 0 l-55 8 4 85 c5 134 -45 277 -151 431 -62 90 -181 204 -248 238 -27 14 -50 28 -50 32 0 4 152 160 338 348 186 187 362 371 392 409 l55 69 135 -7 c74 -3 290 -8 480 -11z m505 -856 c-44 -219 -165 -418 -337 -554 -82 -64 -242 -154 -254 -142 -11 10 63 212 120 332 62 129 146 239 237 312 79 62 243 157 247 143 2 -6 -4 -47 -13 -91z m-1892 -82 c122 -125 239 -328 290 -507 13 -47 28 -93 32 -103 7 -16 0 -15 -61 8 -179 67 -334 199 -474 402 l-53 75 94 94 c51 52 97 94 102 94 4 0 36 -28 70 -63z"></path><path d="M2151 2604 c-30 -21 -22 -52 30 -118 81 -103 148 -131 188 -80 42 54 25 89 -81 163 -77 54 -100 60 -137 35z"></path><path d="M1850 2302 c-23 -18 -23 -18 -4 -58 25 -54 122 -149 158 -156 23 -5 36 0 58 22 15 16 28 39 28 52 0 27 -49 78 -122 127 -53 35 -86 39 -118 13z"></path><path d="M1552 2003 c-21 -18 -21 -18 -1 -58 29 -62 126 -152 171 -160 34 -7 39 -5 57 26 12 19 21 41 21 50 0 26 -36 65 -106 113 -71 50 -108 57 -142 29z"></path><path d="M1272 1720 c-12 -5 -25 -17 -29 -26 -16 -42 93 -176 159 -196 39 -11 42 -11 64 16 26 29 31 72 11 97 -18 23 -155 119 -170 118 -6 0 -22 -4 -35 -9z"></path><path d="M959 1411 l-24 -20 24 -46 c14 -26 44 -65 68 -88 70 -67 122 -67 150 0 13 33 13 38 -5 62 -27 37 -139 111 -167 111 -12 0 -33 -9 -46 -19z"></path><path d="M3279 1934 c-36 -11 -50 -21 -60 -45 -9 -22 -9 -36 -2 -48 14 -22 69 -40 129 -40 41 -1 55 4 74 24 18 19 22 31 17 60 -3 20 -11 43 -18 51 -14 18 -79 17 -140 -2z"></path><path d="M3688 1934 c-39 -12 -48 -20 -58 -49 -14 -44 -4 -60 49 -75 64 -18 109 -13 137 16 22 21 25 31 19 62 -4 20 -11 43 -17 50 -14 16 -71 14 -130 -4z"></path><path d="M4086 1936 c-42 -13 -76 -47 -76 -77 0 -28 43 -50 109 -56 80 -7 111 11 111 65 0 55 -23 82 -68 81 -20 -1 -54 -7 -76 -13z"></path><path d="M3503 3873 c-40 -60 -13 -163 42 -163 38 0 85 21 86 38 4 59 -19 120 -51 137 -41 21 -57 19 -77 -12z"></path><path d="M3195 3776 c-31 -22 -20 -90 23 -138 22 -26 66 -22 101 8 42 35 40 64 -9 108 -43 39 -82 46 -115 22z"></path><path d="M3885 3468 c-24 -18 -27 -26 -22 -60 9 -69 32 -80 124 -57 38 10 48 18 60 47 18 44 12 59 -32 77 -49 21 -98 19 -130 -7z"></path><path d="M3827 3162 c-22 -24 -38 -72 -32 -93 6 -16 89 -49 127 -49 21 0 58 43 58 66 -1 25 -42 72 -75 84 -38 14 -60 12 -78 -8z"></path></g></svg>