<svg xmlns="http://www.w3.org/2000/svg" width="512.000000pt" height="512.000000pt" viewBox="0 0 512.000000 512.000000" preserveAspectRatio="xMidYMid meet"><g transform="translate(0.000000,512.000000) scale(0.100000,-0.100000)" fill="#000000" stroke="none"><path d="M3047 4522 c-15 -16 -17 -48 -17 -235 0 -204 1 -218 20 -237 19 -19 33 -20 345 -20 l325 0 0 -230 0 -230 -139 0 c-114 0 -143 -3 -155 -16 -13 -13 -16 -44 -16 -183 l0 -168 -63 -5 c-78 -7 -133 -34 -184 -92 -71 -81 -68 -20 -68 -1231 0 -1217 -6 -1120 72 -1205 21 -24 61 -54 88 -66 l50 -24 670 1 c487 0 679 4 702 12 65 24 119 73 149 133 l29 59 0 1105 0 1105 -21 45 c-44 93 -127 149 -231 158 l-63 5 0 171 c0 121 -4 176 -12 184 -8 8 -57 12 -155 12 l-143 0 0 469 c0 414 -2 471 -16 485 -14 14 -80 16 -583 16 -537 0 -569 -1 -584 -18z m1078 -517 l0 -430 -147 -3 -148 -3 0 266 c0 252 -1 266 -20 285 -19 19 -33 20 -345 20 l-325 0 0 150 0 150 493 -2 492 -3 0 -430z m315 -670 l0 -135 -460 0 -460 0 0 135 0 135 460 0 460 0 0 -135z m230 -262 c20 -12 46 -40 58 -61 l22 -40 0 -1082 c0 -1212 5 -1126 -73 -1178 l-41 -27 -661 0 -661 0 -37 25 c-21 14 -46 43 -57 66 -20 39 -20 63 -20 1112 0 889 2 1078 14 1105 19 46 65 85 111 96 23 5 313 8 675 7 l635 -1 35 -22z"></path><path d="M3602 2948 c-7 -7 -12 -21 -12 -33 0 -23 56 -173 72 -192 8 -10 79 -13 312 -13 165 0 306 4 313 8 15 9 73 165 73 196 0 29 -18 46 -51 46 -33 0 -40 -9 -69 -87 l-22 -63 -242 0 -242 0 -18 53 c-27 77 -42 97 -74 97 -16 0 -33 -5 -40 -12z"></path><path d="M3452 2768 c-6 -6 -12 -22 -12 -35 0 -31 87 -191 110 -203 11 -6 180 -10 430 -10 l411 0 24 24 c35 35 97 163 93 193 -4 32 -27 48 -59 40 -17 -5 -36 -28 -62 -77 l-38 -70 -374 0 -374 0 -38 73 c-33 63 -42 72 -68 75 -17 2 -36 -3 -43 -10z"></path><path d="M3880 2419 c-30 -5 -93 -28 -140 -51 -330 -161 -403 -592 -145 -854 76 -76 151 -119 257 -146 333 -84 658 173 658 519 0 188 -86 348 -241 452 -105 70 -261 102 -389 80z m284 -143 c171 -84 270 -271 239 -452 -25 -144 -117 -264 -250 -327 -64 -30 -75 -32 -179 -32 -107 0 -112 1 -186 38 -213 105 -301 350 -203 564 51 112 144 195 262 234 45 15 78 18 151 15 82 -3 101 -7 166 -40z"></path><path d="M3874 2154 c-149 -55 -224 -248 -151 -390 51 -100 139 -153 252 -154 89 0 155 29 212 94 121 137 86 339 -74 433 -57 33 -174 42 -239 17z m164 -99 c74 -31 114 -90 114 -165 0 -56 -19 -97 -66 -138 -98 -86 -266 -24 -283 106 -12 89 24 158 102 193 49 23 84 24 133 4z"></path><path d="M3554 1250 c-25 -10 -114 -170 -114 -205 0 -30 22 -47 57 -43 23 2 34 15 67 76 l39 72 373 0 372 0 39 -72 c32 -60 44 -74 67 -76 34 -4 56 13 56 46 0 39 -87 191 -116 203 -32 11 -811 11 -840 -1z"></path><path d="M3661 1056 c-16 -19 -71 -172 -71 -196 0 -11 11 -27 25 -36 38 -25 67 -1 96 80 l23 66 242 0 242 0 23 -66 c29 -81 56 -105 94 -80 32 21 32 46 -2 138 -42 118 -11 108 -358 108 -246 0 -305 -3 -314 -14z"></path><path d="M1782 3148 c-5 -7 -12 -43 -14 -80 -5 -83 -25 -113 -99 -150 -69 -34 -158 -52 -394 -78 -273 -31 -371 -56 -449 -115 -34 -26 -71 -88 -81 -137 -5 -26 -9 -28 -53 -28 -85 0 -86 -2 -118 -238 l-28 -210 -72 -4 c-99 -7 -157 -40 -190 -111 l-24 -52 0 -595 c0 -379 4 -609 10 -632 14 -48 53 -94 101 -118 37 -20 66 -20 1164 -20 1098 0 1127 0 1164 20 49 25 88 70 101 120 7 26 10 242 8 642 l-3 603 -27 45 c-36 63 -91 92 -183 98 l-72 4 -28 210 c-32 238 -32 238 -120 238 l-51 0 0 78 c0 66 -5 88 -31 144 -56 120 -210 257 -390 347 -66 33 -104 39 -121 19z m163 -164 c204 -122 303 -272 269 -401 l-6 -23 -679 0 c-467 0 -679 3 -679 10 0 6 7 25 16 41 32 63 140 93 457 129 315 35 439 78 505 175 18 27 36 62 39 77 3 15 9 28 12 28 4 0 34 -16 66 -36z m429 -556 c3 -13 7 -40 10 -60 l5 -38 -854 0 -854 0 5 38 c3 20 7 47 10 60 l4 22 835 0 835 0 4 -22z m31 -235 c3 -21 8 -48 11 -60 l4 -23 -884 0 -885 0 5 38 c3 20 7 47 10 60 l4 22 865 0 864 0 6 -37z m270 -218 l25 -24 0 -605 0 -605 -24 -28 -24 -28 -1117 0 -1117 0 -24 28 -24 28 0 605 0 605 25 24 24 25 1116 0 1116 0 24 -25z"></path><path d="M655 1860 c-31 -34 -13 -62 67 -106 l73 -39 3 -372 2 -373 -69 -35 c-78 -39 -99 -65 -83 -100 18 -39 47 -37 140 12 48 25 93 50 100 55 9 8 12 108 12 438 0 489 13 431 -111 498 -86 47 -108 51 -134 22z"></path><path d="M1408 1864 c-92 -22 -176 -70 -249 -143 -212 -212 -214 -546 -4 -756 211 -211 549 -211 760 0 210 210 208 544 -4 756 -134 134 -321 188 -503 143z m317 -135 c168 -82 269 -278 236 -456 -31 -170 -155 -306 -316 -348 -247 -64 -489 93 -536 348 -34 182 72 379 246 462 109 51 259 49 370 -6z"></path><path d="M1475 1621 c-140 -36 -236 -169 -222 -308 11 -103 100 -213 197 -242 170 -51 345 65 366 242 18 153 -102 298 -258 311 -29 3 -66 2 -83 -3z m159 -132 c55 -37 79 -89 74 -159 -11 -149 -175 -219 -289 -123 -92 78 -74 238 33 292 56 29 132 25 182 -10z"></path><path d="M2279 1837 c-42 -23 -84 -48 -93 -56 -15 -12 -16 -53 -14 -445 l3 -431 96 -53 c82 -45 100 -51 122 -43 30 12 42 43 27 71 -6 11 -42 36 -81 55 l-69 35 2 373 3 372 72 39 c79 42 93 64 69 101 -23 35 -49 31 -137 -18z"></path><path d="M477 1712 c-40 -44 -16 -76 81 -107 l52 -17 -2 -245 -3 -245 -57 -22 c-73 -27 -93 -46 -84 -81 11 -43 41 -46 136 -12 47 16 93 39 103 50 15 17 17 47 17 311 0 160 -4 297 -8 304 -9 14 -176 82 -202 82 -9 0 -24 -8 -33 -18z"></path><path d="M2451 1695 c-47 -19 -88 -40 -93 -47 -4 -7 -8 -144 -8 -304 0 -264 2 -294 18 -311 9 -11 55 -34 102 -50 95 -34 125 -31 136 12 9 35 -11 54 -84 81 l-57 22 -3 244 -2 243 67 25 c54 20 70 31 77 52 8 22 6 32 -9 48 -24 27 -45 25 -144 -15z"></path></g></svg>