<svg xmlns="http://www.w3.org/2000/svg" width="512.000000pt" height="512.000000pt" viewBox="0 0 512.000000 512.000000" preserveAspectRatio="xMidYMid meet"><g transform="translate(0.000000,512.000000) scale(0.100000,-0.100000)" fill="#000000" stroke="none"><path d="M2585 4960 c-25 -10 -2103 -1820 -2129 -1854 -22 -28 -16 -66 14 -96 19 -19 34 -20 290 -20 l270 0 0 -872 c-1 -857 -1 -873 -21 -897 -11 -13 -22 -22 -24 -19 -2 2 -39 87 -81 188 -68 164 -74 185 -63 206 11 21 8 35 -24 114 -20 49 -37 96 -37 104 0 8 14 47 31 87 41 96 39 176 -7 241 -38 55 -106 90 -172 90 -69 -1 -357 -117 -410 -166 -56 -50 -80 -137 -57 -211 22 -75 58 -110 159 -154 l89 -39 34 -84 c39 -92 48 -107 78 -118 15 -6 50 -80 137 -293 65 -157 118 -291 118 -297 0 -16 -126 -184 -212 -282 -40 -46 -133 -144 -205 -220 -139 -143 -153 -167 -115 -201 17 -16 183 -17 2188 -17 1947 0 2172 2 2192 16 21 15 22 21 22 190 l0 174 145 0 c190 0 177 -18 173 250 -3 186 -4 203 -22 216 -15 10 -55 14 -158 14 l-138 0 0 173 c0 121 -4 177 -12 185 -8 8 -58 12 -160 12 -81 0 -148 3 -148 8 0 4 9 126 20 272 11 146 20 275 20 288 0 12 6 22 13 22 20 0 47 33 47 56 0 10 -20 38 -43 62 -41 39 -47 42 -100 42 l-57 0 0 430 0 430 265 0 266 0 24 25 c29 28 32 61 9 93 -8 12 -200 183 -427 381 -227 197 -697 607 -1046 910 -348 304 -644 557 -658 562 -29 11 -51 11 -78 -1z m-15 -334 l0 -184 -752 -671 -753 -671 -230 0 c-198 0 -227 2 -215 14 14 13 406 355 1205 1051 160 139 391 341 515 449 124 108 226 196 227 196 2 0 3 -83 3 -184z m1110 -681 l964 -840 -227 -3 -228 -2 -362 322 c-199 178 -539 480 -755 673 l-392 349 0 184 c0 174 1 184 17 171 10 -8 452 -392 983 -854z m-952 81 l2 -236 -105 0 -105 0 0 232 0 231 53 48 52 47 50 -43 50 -43 3 -236z m-318 -56 l0 -180 -105 0 -105 0 0 89 0 90 102 90 c56 50 103 91 105 91 2 0 3 -81 3 -180z m543 90 l95 -85 1 -92 1 -93 -105 0 -105 0 0 181 c0 99 4 179 8 177 5 -1 52 -41 105 -88z m-853 -684 c0 -666 -14 -626 285 -838 99 -70 195 -139 213 -153 l32 -26 0 -551 c0 -499 2 -553 17 -570 14 -16 35 -18 210 -18 l193 0 0 -105 0 -105 -350 0 -350 0 -2 608 -3 609 -29 37 c-50 66 -50 66 -497 66 -396 0 -402 0 -441 -22 -21 -12 -49 -38 -61 -58 -21 -34 -22 -45 -27 -431 l-5 -397 -77 -41 -78 -40 0 838 0 838 73 64 c88 76 760 676 832 742 28 25 53 46 58 47 4 0 7 -222 7 -494z m1203 371 l67 -60 0 -458 0 -459 -105 0 -105 0 0 551 0 551 38 -33 c20 -18 67 -59 105 -92z m-253 -172 l0 -105 -425 0 -425 0 0 105 0 105 425 0 425 0 0 -105z m553 -95 l96 -85 -2 -175 -2 -175 -107 -3 -108 -3 0 271 c0 224 2 270 13 263 8 -4 57 -46 110 -93z m-1193 -280 l0 -160 -105 0 -105 0 0 160 0 160 105 0 105 0 0 -160z m320 -135 l0 -295 -39 0 c-21 0 -43 -6 -49 -13 -7 -8 -13 -66 -14 -135 l-3 -123 -52 37 -53 37 0 393 0 394 105 0 105 0 0 -295z m320 135 l0 -160 -105 0 -105 0 0 160 0 160 105 0 105 0 0 -160z m948 -74 l122 -108 0 -284 0 -284 -80 0 -80 0 0 141 c0 77 -5 149 -10 160 -9 16 -22 19 -80 19 l-70 0 0 266 0 266 38 -33 c20 -19 92 -83 160 -143z m-1588 -331 c0 -74 -3 -135 -7 -135 -5 1 -35 20 -68 43 -48 35 -66 55 -92 107 -17 36 -34 77 -37 93 l-6 27 105 0 105 0 0 -135z m640 55 l0 -80 -105 0 -105 0 0 80 0 80 105 0 105 0 0 -80z m640 0 l0 -80 -105 0 -105 0 0 80 0 80 105 0 105 0 0 -80z m-50 -235 l0 -55 -455 0 -455 0 0 55 0 55 455 0 455 0 0 -55z m210 -138 c0 -158 3 -197 16 -215 33 -47 94 -15 94 50 l0 38 80 0 80 0 0 -110 0 -110 -254 0 c-218 0 -257 -2 -270 -16 -9 -8 -16 -19 -16 -24 0 -5 -9 -11 -19 -15 -42 -13 -39 -90 4 -101 18 -4 25 -13 25 -30 0 -30 27 -415 36 -501 l6 -63 -276 0 -276 0 -16 -25 c-14 -21 -24 -25 -65 -25 l-49 0 0 560 0 560 345 0 345 0 0 -87 c0 -95 13 -123 56 -123 48 0 54 28 54 237 l0 193 50 0 50 0 0 -193z m-1010 -587 l0 -560 -55 0 -55 0 0 560 0 560 55 0 55 0 0 -560z m-617 321 c16 -12 17 -67 17 -607 l0 -594 -42 0 -43 0 -49 88 c-134 236 -366 372 -617 360 l-89 -4 0 365 c0 201 4 371 8 377 21 32 48 34 423 31 301 -2 379 -5 392 -16z m-1536 -101 c21 -12 36 -32 43 -58 11 -35 9 -46 -20 -115 -36 -86 -34 -84 -171 -139 l-86 -35 -64 26 c-91 37 -105 46 -119 81 -17 41 -3 97 30 122 36 26 300 137 330 137 14 1 39 -8 57 -19z m3103 -143 c0 -73 14 -99 55 -99 41 0 55 26 55 99 l0 64 53 -3 52 -3 3 -199 c1 -127 6 -204 13 -213 15 -17 63 -17 78 0 7 9 12 86 13 213 l3 199 69 3 c38 2 73 -1 77 -5 5 -6 -33 -615 -40 -641 -1 -1 -110 -1 -243 0 l-243 3 -22 300 c-12 165 -22 310 -22 323 -1 20 4 22 49 22 l50 0 0 -63z m-3085 -264 c9 -20 14 -42 12 -48 -3 -5 -39 -24 -80 -42 l-76 -31 -17 44 c-9 24 -15 46 -13 49 6 6 142 64 151 65 4 0 15 -17 23 -37z m117 -393 c48 -118 88 -220 88 -228 0 -14 -50 -105 -55 -100 -1 2 -43 102 -93 223 -50 121 -98 237 -106 257 l-16 38 32 14 c18 8 39 14 47 13 8 -1 51 -91 103 -217z m865 15 c152 -51 238 -131 352 -325 77 -131 128 -208 218 -326 l53 -70 0 -172 0 -172 -951 0 -951 0 106 111 c198 206 352 410 487 644 134 232 289 333 517 334 75 1 109 -4 169 -24z m2113 -180 l0 -135 -320 0 -320 0 0 135 0 135 320 0 320 0 0 -135z m748 -2 l3 -133 -321 0 -320 0 0 135 0 135 318 -2 317 -3 3 -132z m-1868 -378 l0 -135 -124 0 -124 0 -45 53 c-48 57 -133 171 -148 199 -9 17 3 18 216 18 l225 0 0 -135z m748 3 l-3 -133 -317 -3 -318 -2 0 135 0 135 320 0 321 0 -3 -132z m742 -3 l0 -135 -317 2 -318 3 -3 133 -3 132 321 0 320 0 0 -135z m690 0 l0 -135 -290 0 -290 0 0 135 0 135 290 0 290 0 0 -135z m-1810 -370 l0 -135 -320 0 -320 0 0 135 0 135 320 0 320 0 0 -135z m750 0 l0 -135 -320 0 -320 0 0 135 0 135 320 0 320 0 0 -135z m748 -2 l3 -133 -321 0 -320 0 0 135 0 135 318 -2 317 -3 3 -132z"></path><path d="M2062 1744 c-16 -11 -22 -25 -22 -53 0 -30 -5 -40 -24 -49 -45 -20 -42 -82 4 -97 14 -4 20 -15 20 -36 0 -46 17 -69 50 -69 52 0 62 30 58 170 -3 107 -5 123 -22 136 -25 18 -36 18 -64 -2z"></path><path d="M481 2000 c-112 -47 -121 -54 -121 -89 0 -32 16 -51 43 -51 19 0 213 77 235 93 15 12 16 59 0 75 -20 20 -59 13 -157 -28z"></path><path d="M1626 1154 c-36 -36 -9 -94 44 -94 48 0 66 54 30 90 -24 24 -53 26 -74 4z"></path><path d="M1510 931 c-15 -29 -12 -49 10 -71 36 -36 90 -16 90 34 0 49 -78 77 -100 37z"></path><path d="M1090 830 c-24 -24 -25 -38 -5 -67 23 -32 54 -35 81 -8 30 30 30 40 -1 70 -29 30 -49 31 -75 5z"></path><path d="M1842 834 c-30 -20 -28 -58 4 -83 56 -44 115 28 64 79 -24 24 -38 25 -68 4z"></path><path d="M987 612 c-35 -38 -13 -92 37 -92 22 0 56 36 56 59 0 46 -62 67 -93 33z"></path><path d="M2044 604 c-16 -24 -16 -27 3 -52 26 -34 56 -39 83 -12 21 21 20 49 -2 78 -18 22 -66 14 -84 -14z"></path><path d="M1312 514 c-52 -36 -5 -122 53 -96 14 6 28 23 31 38 6 22 2 32 -20 51 -32 27 -35 28 -64 7z"></path><path d="M1730 510 c-26 -26 -25 -46 5 -75 29 -30 49 -31 75 -5 26 26 25 46 -5 75 -29 30 -49 31 -75 5z"></path></g></svg>